<?xml version="1.0" encoding="UTF-8" standalone="no"?>
<!-- Created with Inkscape (http://www.inkscape.org/) -->

<svg
   width="56.826958mm"
   height="55.078125mm"
   viewBox="0 0 56.826958 55.078125"
   version="1.1"
   id="svg1"
   xmlns:inkscape="http://www.inkscape.org/namespaces/inkscape"
   xmlns:sodipodi="http://sodipodi.sourceforge.net/DTD/sodipodi-0.dtd"
   xmlns="http://www.w3.org/2000/svg"
   xmlns:svg="http://www.w3.org/2000/svg">
  <sodipodi:namedview
     id="namedview1"
     pagecolor="#ffffff"
     bordercolor="#000000"
     borderopacity="0.25"
     inkscape:showpageshadow="2"
     inkscape:pageopacity="0.0"
     inkscape:pagecheckerboard="0"
     inkscape:deskcolor="#d1d1d1"
     inkscape:document-units="mm">
    <inkscape:page
       x="0"
       y="0"
       width="56.826958"
       height="55.078125"
       id="page2"
       margin="0"
       bleed="0" />
  </sodipodi:namedview>
  <defs
     id="defs1" />
  <g
     inkscape:label="Réteg 1"
     inkscape:groupmode="layer"
     id="layer1"
     transform="translate(-75.952942,-81.43165)">
    <path
       id="path1"
       style="fill:#003882;fill-opacity:1;fill-rule:evenodd;stroke:none;stroke-width:0.352777"
       d="m 87.089834,81.432941 c -1.41406,0.0365 -2.58525,0.839687 -2.7926,2.060856 -1.2259,7.217128 -2.50971,14.782578 -3.85351,22.695773 -1.4079,8.28912 -2.88833,17.00943 -4.44365,26.17153 -0.34149,2.01161 1.21061,3.69634 3.43131,3.71554 9.91401,0.0857 19.12001,0.16525 27.662906,0.23926 7.9483,0.0688 15.38663,0.13346 22.34334,0.19379 1.42748,0.0123 2.61218,-1.29345 2.64015,-2.88303 0.12852,-7.27431 0.25181,-14.27062 0.37052,-20.99252 0.1143,-6.47058 0.22503,-12.716905 0.33125,-18.738395 0.022,-1.25271 -0.97882,-2.4956 -2.22829,-2.77761 -6.05081,-1.3662 -12.46719,-2.816227 -19.26808,-4.350635 -7.24252,-1.634101 -14.956196,-3.375666 -23.184106,-5.232758 -0.34333,-0.0775 -0.68292,-0.110222 -1.00924,-0.101801 z m 7.44502,15.852264 h 4.34858 c 0.213,0 0.38602,0.17228 0.38602,0.3855 v 2.20039 c 0,0.212905 -0.17302,0.385505 -0.38602,0.385505 h -4.34858 c -0.21301,0 -0.38602,-0.1726 -0.38602,-0.385505 v -2.20039 c 0,-0.21322 0.17284,-0.3855 0.38602,-0.3855 z m 2.17455,5.676145 c 5.443706,-1.1e-4 9.872776,4.42885 9.872776,9.87278 0,5.44368 -4.42907,9.87227 -9.872776,9.87227 -5.444,0 -9.87278,-4.42859 -9.87278,-9.87227 0,-5.44393 4.42878,-9.87278 9.87278,-9.87278 z m 13.926276,0 h 13.46946 c 0.21319,0 0.38551,0.17232 0.38551,0.3855 v 2.2009 c 0,0.2129 -0.17232,0.38499 -0.38551,0.38499 H 113.22157 V 119.735 h 10.88357 c 0.21319,0 0.38551,0.17229 0.38551,0.38551 v 2.20038 c 0,0.2129 -0.17232,0.38551 -0.38551,0.38551 h -13.46946 c -0.2129,0 -0.38602,-0.17261 -0.38602,-0.38551 v -1.41129 -0.78909 -14.57276 -1.10071 -1.10019 c 0,-0.21318 0.17301,-0.3855 0.38602,-0.3855 z m -13.926276,2.97139 c -3.80499,0 -6.90087,3.09629 -6.90087,6.90139 0,3.80488 3.09588,6.90087 6.90087,6.90087 3.804806,0 6.900866,-3.09599 6.900866,-6.90087 0,-3.8051 -3.09606,-6.90139 -6.900866,-6.90139 z m 21.046256,5.41569 h 4.34909 c 0.213,0 0.38602,0.17181 0.38602,0.38499 v 2.2009 c 0,0.2129 -0.17302,0.38551 -0.38602,0.38551 h -4.34909 c -0.21291,0 -0.38551,-0.17261 -0.38551,-0.38551 v -2.2009 c 0,-0.21318 0.17239,-0.38499 0.38551,-0.38499 z"
       inkscape:export-filename="path1.svg"
       inkscape:export-xdpi="96"
       inkscape:export-ydpi="96" />
  </g>
</svg>
